<svg xmlns="http://www.w3.org/2000/svg" width="101.354" height="42.878" viewBox="0 0 101.354 42.878">
  <g id="Grupo_8" data-name="Grupo 8" transform="translate(-1151.306 -30.2)" opacity="0.998">
    <path id="Trazado_2" data-name="Trazado 2" d="M-50.694-23.8h23.766v1.768h-22v9.248h22V0H-50.694V-1.768h22v-9.248h-22ZM-30.566-3.672H-50.694V-5.44h18.326v-1.9H-50.694V-9.112h20.128ZM-47.022-20.128h20.094v1.768H-45.254v1.9h18.326v1.768H-47.022ZM-24.854-23.8h23.8v1.768H-12.07V-1.768H-1.054V0h-23.8V-1.768h11.016V-22.032H-24.854Zm23.8,11.016v1.768H-2.822v-1.768ZM-4.726-9.112h3.672v1.768h-5.44v-9.112h5.44v1.768H-4.726ZM-8.4-5.44h7.344v1.768h-9.112V-20.128h9.112v1.768H-8.4Zm-16.456-5.576v-1.768h1.768v1.768Zm5.44,3.672h-5.44V-9.112h3.672v-5.576h-3.672v-1.768h5.44Zm3.672,3.672h-9.112V-5.44h7.344V-18.36h-7.344v-1.768h9.112ZM1.02-23.8h23.8v1.768H2.788v9.248H24.82v1.768H2.788v9.248H24.82V0H1.02ZM6.46-5.44H24.82v1.768H4.692v-5.44H24.82v1.768H6.46Zm0-11.016H24.82v1.768H4.692v-5.44H24.82v1.768H6.46ZM26.894-23.8H50.66v1.768h-22V-1.768h22V0H26.894ZM37.876-12.784H50.66v1.768H37.876ZM34.2-16.456H50.66v1.768H36.006v5.576H50.66v1.768H34.2ZM32.334-5.44H50.66v1.768H30.566V-20.128H50.66v1.768H32.334Z" transform="translate(1202 54)" fill="#fff"/>
    <path id="Trazado_3" data-name="Trazado 3" d="M-47.449-1.492A.6.6,0,0,0-47.684-2a3.074,3.074,0,0,0-.844-.375,5.981,5.981,0,0,1-.965-.389,1.576,1.576,0,0,1-.969-1.41A1.373,1.373,0,0,1-50.2-5a1.694,1.694,0,0,1,.746-.564,2.808,2.808,0,0,1,1.092-.2,2.556,2.556,0,0,1,1.086.221,1.729,1.729,0,0,1,.74.623,1.63,1.63,0,0,1,.264.914h-1.172a.767.767,0,0,0-.246-.607,1.012,1.012,0,0,0-.691-.217,1.081,1.081,0,0,0-.668.182.573.573,0,0,0-.238.479.549.549,0,0,0,.279.465,3.155,3.155,0,0,0,.822.352,3.553,3.553,0,0,1,1.457.746A1.486,1.486,0,0,1-46.273-1.5a1.369,1.369,0,0,1-.559,1.158,2.445,2.445,0,0,1-1.5.42,2.9,2.9,0,0,1-1.2-.24,1.891,1.891,0,0,1-.822-.658,1.686,1.686,0,0,1-.283-.969h1.176q0,.941,1.125.941a1.094,1.094,0,0,0,.652-.17A.553.553,0,0,0-47.449-1.492ZM-44.234,0h-1.172V-5.687h1.172ZM-40.2-1.492A.6.6,0,0,0-40.434-2a3.074,3.074,0,0,0-.844-.375,5.981,5.981,0,0,1-.965-.389,1.576,1.576,0,0,1-.969-1.41A1.373,1.373,0,0,1-42.951-5a1.694,1.694,0,0,1,.746-.564,2.808,2.808,0,0,1,1.092-.2,2.556,2.556,0,0,1,1.086.221,1.729,1.729,0,0,1,.74.623,1.63,1.63,0,0,1,.264.914H-40.2a.767.767,0,0,0-.246-.607,1.012,1.012,0,0,0-.691-.217,1.081,1.081,0,0,0-.668.182.573.573,0,0,0-.238.479.549.549,0,0,0,.279.465,3.155,3.155,0,0,0,.822.352,3.553,3.553,0,0,1,1.457.746A1.486,1.486,0,0,1-39.023-1.5a1.369,1.369,0,0,1-.559,1.158,2.445,2.445,0,0,1-1.5.42,2.9,2.9,0,0,1-1.2-.24A1.891,1.891,0,0,1-43.1-.82a1.686,1.686,0,0,1-.283-.969h1.176q0,.941,1.125.941a1.094,1.094,0,0,0,.652-.17A.553.553,0,0,0-40.2-1.492Zm6.25-3.246h-1.742V0h-1.172V-4.738h-1.719v-.949h4.633Zm4.09,2.273h-2.25V-.941h2.641V0h-3.812V-5.687h3.8v.949h-2.633v1.355h2.25Zm2.609-3.223,1.461,4.125,1.453-4.125H-22.8V0h-1.176V-1.555l.117-2.684L-25.391,0h-.8l-1.531-4.234.117,2.68V0h-1.172V-5.687Zm8.688,4.516h-2.055L-21.008,0h-1.246l2.117-5.687h1.086L-16.922,0h-1.246ZM-20.3-2.121h1.422l-.715-2.129ZM-14.4,0V-5.687h1.75a2.658,2.658,0,0,1,1.342.338,2.356,2.356,0,0,1,.924.961,2.964,2.964,0,0,1,.332,1.416v.262a2.972,2.972,0,0,1-.326,1.41,2.336,2.336,0,0,1-.92.957A2.678,2.678,0,0,1-12.637,0Zm1.172-4.738v3.8h.566a1.273,1.273,0,0,0,1.051-.449,2.03,2.03,0,0,0,.371-1.285v-.3A2.062,2.062,0,0,0-11.6-4.291a1.268,1.268,0,0,0-1.051-.447Zm7.449,2.273h-2.25V-.941h2.641V0H-9.2V-5.687h3.8v.949H-8.027v1.355h2.25ZM-1.461,0H-2.633V-5.687h1.172ZM4.25,0H3.078L.8-3.742V0H-.375V-5.687H.8l2.285,3.75v-3.75H4.25ZM8.7-2.324H6.445V0H5.273V-5.687h3.7v.949H6.445V-3.27H8.7Zm5.633-.391a3.433,3.433,0,0,1-.3,1.473,2.236,2.236,0,0,1-.85.977,2.35,2.35,0,0,1-1.268.344,2.366,2.366,0,0,1-1.262-.34,2.258,2.258,0,0,1-.859-.971,3.335,3.335,0,0,1-.309-1.451v-.281a3.415,3.415,0,0,1,.3-1.479,2.254,2.254,0,0,1,.855-.98,2.353,2.353,0,0,1,1.264-.342,2.353,2.353,0,0,1,1.264.342,2.254,2.254,0,0,1,.855.98,3.406,3.406,0,0,1,.3,1.475Zm-1.187-.258a2.393,2.393,0,0,0-.32-1.359,1.044,1.044,0,0,0-.914-.465,1.044,1.044,0,0,0-.91.459,2.366,2.366,0,0,0-.324,1.346v.277a2.423,2.423,0,0,0,.32,1.352,1.041,1.041,0,0,0,.922.48,1.032,1.032,0,0,0,.906-.463,2.409,2.409,0,0,0,.32-1.35Zm4.145.891h-.934V0H15.18V-5.687h2.113a2.389,2.389,0,0,1,1.555.449,1.55,1.55,0,0,1,.547,1.27A1.75,1.75,0,0,1,19.143-3a1.718,1.718,0,0,1-.764.619l1.23,2.324V0H18.352Zm-.934-.949H17.3a.968.968,0,0,0,.684-.225.8.8,0,0,0,.242-.619.859.859,0,0,0-.229-.633.95.95,0,0,0-.7-.23h-.941Zm5.465-2.656,1.461,4.125L24.73-5.687H26.27V0H25.094V-1.555l.117-2.684L23.676,0h-.8L21.34-4.234l.117,2.68V0H20.285V-5.687ZM30.5-1.172H28.449L28.059,0H26.813L28.93-5.687h1.086L32.145,0H30.9Zm-1.738-.949h1.422L29.473-4.25Zm8.375.227a2.013,2.013,0,0,1-.678,1.445,2.38,2.38,0,0,1-1.611.527,2.14,2.14,0,0,1-1.721-.736A3.019,3.019,0,0,1,32.5-2.68v-.348a3.409,3.409,0,0,1,.289-1.445,2.166,2.166,0,0,1,.826-.959,2.314,2.314,0,0,1,1.248-.334,2.319,2.319,0,0,1,1.586.527,2.163,2.163,0,0,1,.7,1.48H35.977a1.188,1.188,0,0,0-.307-.8,1.136,1.136,0,0,0-.8-.248,1,1,0,0,0-.877.42,2.353,2.353,0,0,0-.3,1.3v.43A2.519,2.519,0,0,0,33.971-1.3a.977.977,0,0,0,.881.426,1.157,1.157,0,0,0,.811-.248,1.12,1.12,0,0,0,.307-.768ZM39.156,0H37.984V-5.687h1.172Zm5.758-2.715a3.433,3.433,0,0,1-.3,1.473,2.236,2.236,0,0,1-.85.977A2.35,2.35,0,0,1,42.5.078a2.366,2.366,0,0,1-1.262-.34,2.258,2.258,0,0,1-.859-.971,3.335,3.335,0,0,1-.309-1.451v-.281a3.415,3.415,0,0,1,.3-1.479,2.254,2.254,0,0,1,.855-.98,2.353,2.353,0,0,1,1.264-.342,2.353,2.353,0,0,1,1.264.342,2.254,2.254,0,0,1,.855.98,3.406,3.406,0,0,1,.3,1.475Zm-1.187-.258a2.393,2.393,0,0,0-.32-1.359,1.044,1.044,0,0,0-.914-.465,1.044,1.044,0,0,0-.91.459,2.366,2.366,0,0,0-.324,1.346v.277a2.423,2.423,0,0,0,.32,1.352,1.041,1.041,0,0,0,.922.48,1.032,1.032,0,0,0,.906-.463,2.409,2.409,0,0,0,.32-1.35ZM50.391,0H49.219L46.938-3.742V0H45.766V-5.687h1.172l2.285,3.75v-3.75h1.168Z" transform="translate(1202 65)" fill="#fff"/>
    <path id="Trazado_4" data-name="Trazado 4" d="M-46.673-2.465h-2.25V-.941h2.641V0h-3.812V-5.687h3.8v.949h-2.633v1.355h2.25ZM-43.7-.941h2.488V0h-3.66V-5.687H-43.7Zm7.31-1.523h-2.25V-.941h2.641V0h-3.812V-5.687H-36v.949h-2.633v1.355h2.25Zm6.271.57a2.013,2.013,0,0,1-.678,1.445A2.38,2.38,0,0,1-32.4.078a2.14,2.14,0,0,1-1.721-.736,3.019,3.019,0,0,1-.627-2.021v-.348a3.409,3.409,0,0,1,.289-1.445,2.166,2.166,0,0,1,.826-.959,2.314,2.314,0,0,1,1.248-.334,2.319,2.319,0,0,1,1.586.527,2.163,2.163,0,0,1,.7,1.48h-1.172a1.188,1.188,0,0,0-.307-.8,1.136,1.136,0,0,0-.8-.248,1,1,0,0,0-.877.42,2.353,2.353,0,0,0-.3,1.3v.43A2.519,2.519,0,0,0-33.284-1.3a.977.977,0,0,0,.881.426,1.157,1.157,0,0,0,.811-.248,1.12,1.12,0,0,0,.307-.768Zm5.665-2.844h-1.742V0h-1.172V-4.738h-1.719v-.949h4.633Zm3.5,2.656h-.934V0h-1.172V-5.687h2.113a2.389,2.389,0,0,1,1.555.449,1.55,1.55,0,0,1,.547,1.27A1.75,1.75,0,0,1-19.09-3a1.718,1.718,0,0,1-.764.619l1.23,2.324V0h-1.258Zm-.934-.949h.945a.968.968,0,0,0,.684-.225.8.8,0,0,0,.242-.619.859.859,0,0,0-.229-.633.95.95,0,0,0-.7-.23h-.941ZM-15.973,0h-1.172V-5.687h1.172Zm6.279-1.895a2.013,2.013,0,0,1-.678,1.445,2.38,2.38,0,0,1-1.611.527A2.14,2.14,0,0,1-13.7-.658a3.019,3.019,0,0,1-.627-2.021v-.348a3.409,3.409,0,0,1,.289-1.445,2.166,2.166,0,0,1,.826-.959,2.314,2.314,0,0,1,1.248-.334,2.319,2.319,0,0,1,1.586.527,2.163,2.163,0,0,1,.7,1.48h-1.172a1.188,1.188,0,0,0-.307-.8,1.136,1.136,0,0,0-.8-.248,1,1,0,0,0-.877.42,2.353,2.353,0,0,0-.3,1.3v.43A2.519,2.519,0,0,0-12.864-1.3a.977.977,0,0,0,.881.426,1.157,1.157,0,0,0,.811-.248,1.12,1.12,0,0,0,.307-.768Zm4.708.723H-7.04L-7.431,0H-8.677L-6.56-5.687h1.086L-3.345,0H-4.591Zm-1.738-.949H-5.3L-6.017-4.25ZM5.1-1.895A2.013,2.013,0,0,1,4.421-.449,2.38,2.38,0,0,1,2.81.078,2.14,2.14,0,0,1,1.089-.658,3.019,3.019,0,0,1,.462-2.68v-.348A3.409,3.409,0,0,1,.751-4.473a2.166,2.166,0,0,1,.826-.959,2.314,2.314,0,0,1,1.248-.334,2.319,2.319,0,0,1,1.586.527,2.163,2.163,0,0,1,.7,1.48H3.935a1.188,1.188,0,0,0-.307-.8,1.136,1.136,0,0,0-.8-.248,1,1,0,0,0-.877.42,2.353,2.353,0,0,0-.3,1.3v.43A2.519,2.519,0,0,0,1.929-1.3a.977.977,0,0,0,.881.426,1.157,1.157,0,0,0,.811-.248,1.12,1.12,0,0,0,.307-.768Zm6.169-.82a3.433,3.433,0,0,1-.3,1.473,2.236,2.236,0,0,1-.85.977A2.35,2.35,0,0,1,8.854.078a2.366,2.366,0,0,1-1.262-.34,2.258,2.258,0,0,1-.859-.971,3.335,3.335,0,0,1-.309-1.451v-.281a3.415,3.415,0,0,1,.3-1.479,2.254,2.254,0,0,1,.855-.98,2.353,2.353,0,0,1,1.264-.342,2.353,2.353,0,0,1,1.264.342,2.254,2.254,0,0,1,.855.98,3.406,3.406,0,0,1,.3,1.475Zm-1.187-.258a2.393,2.393,0,0,0-.32-1.359A1.044,1.044,0,0,0,8.847-4.8a1.044,1.044,0,0,0-.91.459,2.366,2.366,0,0,0-.324,1.346v.277a2.423,2.423,0,0,0,.32,1.352,1.041,1.041,0,0,0,.922.48,1.032,1.032,0,0,0,.906-.463,2.409,2.409,0,0,0,.32-1.35Zm4.3-2.715L15.84-1.562l1.453-4.125h1.539V0H17.657V-1.555l.117-2.684L16.239,0h-.8L13.9-4.234l.117,2.68V0H12.848V-5.687Zm9.626,3.223h-2.25V-.941H24.4V0H20.584V-5.687h3.8v.949H21.756v1.355h2.25Zm3.912.383h-.934V0H25.812V-5.687h2.113a2.389,2.389,0,0,1,1.555.449,1.55,1.55,0,0,1,.547,1.27A1.75,1.75,0,0,1,29.775-3a1.718,1.718,0,0,1-.764.619l1.23,2.324V0H28.984Zm-.934-.949h.945a.968.968,0,0,0,.684-.225.8.8,0,0,0,.242-.619.859.859,0,0,0-.229-.633.95.95,0,0,0-.7-.23h-.941ZM36.11-1.895a2.013,2.013,0,0,1-.678,1.445,2.38,2.38,0,0,1-1.611.527A2.14,2.14,0,0,1,32.1-.658a3.019,3.019,0,0,1-.627-2.021v-.348a3.409,3.409,0,0,1,.289-1.445,2.166,2.166,0,0,1,.826-.959,2.314,2.314,0,0,1,1.248-.334,2.319,2.319,0,0,1,1.586.527,2.163,2.163,0,0,1,.7,1.48H34.946a1.188,1.188,0,0,0-.307-.8,1.136,1.136,0,0,0-.8-.248,1,1,0,0,0-.877.42,2.353,2.353,0,0,0-.3,1.3v.43A2.519,2.519,0,0,0,32.94-1.3a.977.977,0,0,0,.881.426,1.157,1.157,0,0,0,.811-.248,1.12,1.12,0,0,0,.307-.768ZM38.854,0H37.682V-5.687h1.172Zm5.025-1.172H41.824L41.433,0H40.187L42.3-5.687H43.39L45.519,0H44.273ZM42.14-2.121h1.422L42.847-4.25Zm5.81,1.18h2.488V0h-3.66V-5.687H47.95Z" transform="translate(1202 73)" fill="#fff"/>
  </g>
</svg>
